<?xml version="1.0" encoding="UTF-8" standalone="no"?>
<!DOCTYPE svg PUBLIC "-//W3C//DTD SVG 1.1//EN" "http://www.w3.org/Graphics/SVG/1.1/DTD/svg11.dtd">
<svg width="100%" height="100%" viewBox="0 0 1395 523" version="1.1" xmlns="http://www.w3.org/2000/svg" xmlns:xlink="http://www.w3.org/1999/xlink" xml:space="preserve" xmlns:serif="http://www.serif.com/" style="fill-rule:evenodd;clip-rule:evenodd;stroke-linejoin:round;stroke-miterlimit:2;">
    <g transform="matrix(1,0,0,1,-172.396,-1020.13)">
        <g transform="matrix(2.96474,0,0,2.96474,17.5724,965.436)">
            <circle cx="236.906" cy="95.296" r="8.901" style="fill:rgb(253,140,64);"/>
        </g>
        <g transform="matrix(3.125,0,0,3.125,-21.8196,951.591)">
            <path d="M206.551,136.378C206.551,136.378 205.41,120.173 229.374,112.185C253.339,104.197 253.11,104.5 253.11,104.5C253.11,104.5 272.738,99.632 274.564,82.971C274.564,82.971 282.781,101.23 254.023,110.587L225.266,119.945C225.266,119.945 214.767,122.227 206.551,136.378Z" style="fill:rgb(253,140,64);"/>
        </g>
        <g transform="matrix(3.125,0,0,3.125,-21.8196,951.591)">
            <path d="M236.449,120.173C236.449,120.173 284.269,111.5 275.651,160.57C275.651,160.57 276.847,122.455 236.449,120.173Z" style="fill:rgb(253,140,64);"/>
        </g>
        <g transform="matrix(3.29156,0,0,3.29156,-17.8193,951.218)">
            <path d="M255.204,139.606C256.092,142.482 256.57,145.537 256.57,148.702C256.57,165.727 242.747,179.549 225.722,179.549C208.697,179.549 194.875,165.727 194.875,148.702C194.875,142.208 196.886,136.18 200.32,131.207C199.181,134.463 198.559,137.985 198.559,141.66C198.559,158.266 211.264,171.749 226.914,171.749C242.564,171.749 255.27,158.266 255.27,141.66C255.27,140.97 255.248,140.285 255.204,139.606Z" style="fill:white;"/>
        </g>
        <g transform="matrix(3.125,0,0,3.125,-91.0027,886.687)">
            <path d="M237.797,181.988C236.632,179.01 235.993,175.77 235.993,172.381C235.993,157.801 247.83,145.963 262.411,145.963C276.991,145.963 288.829,157.801 288.829,172.381C288.829,180.178 285.444,187.191 280.064,192.028C283.405,187.652 285.405,182.088 285.405,176.033C285.405,161.956 274.591,150.528 261.27,150.528C247.949,150.528 237.134,161.956 237.134,176.033C237.134,178.083 237.363,180.077 237.797,181.988Z" style="fill:white;"/>
        </g>
        <g transform="matrix(3.125,0,0,3.125,-11.8345,948.738)">
            <circle cx="281.525" cy="177.117" r="5.135" style="fill:white;"/>
        </g>
        <g transform="matrix(3.125,0,0,3.125,642.685,795.536)">
            <circle cx="281.525" cy="177.117" r="5.135" style="fill:white;"/>
        </g>
        <g transform="matrix(3.05116,-6.63264,6.63264,3.05116,-977.66,3209.39)">
            <path d="M285.614,64.474L285.724,63.469C286.158,63.444 286.503,63.389 286.759,63.304C287.027,63.21 287.233,63.063 287.378,62.863C287.523,62.662 287.628,62.402 287.694,62.08C287.761,61.748 287.821,61.338 287.874,60.851L289.528,45.66L288.294,45.525C287.685,45.459 287.21,45.479 286.869,45.586C286.529,45.693 286.22,45.885 285.943,46.163C285.676,46.443 285.428,46.832 285.199,47.331C284.971,47.82 284.776,48.287 284.615,48.732L282.527,48.505L283.11,43.157L301.043,45.109L300.461,50.458L298.374,50.23C298.256,49.519 298.159,48.994 298.082,48.657C298.006,48.32 297.909,48.032 297.791,47.793C297.684,47.545 297.563,47.336 297.427,47.167C297.292,46.998 297.142,46.859 296.98,46.748C296.817,46.638 296.606,46.548 296.346,46.479C296.098,46.401 295.765,46.339 295.349,46.293L294.252,46.174L292.598,61.365C292.539,61.903 292.51,62.316 292.509,62.604C292.51,62.882 292.541,63.111 292.604,63.293C292.666,63.474 292.747,63.627 292.847,63.751C292.958,63.866 293.11,63.98 293.303,64.093C293.507,64.198 293.785,64.295 294.135,64.384L294.025,65.39L285.614,64.474Z" style="fill:white;fill-rule:nonzero;"/>
            <path d="M308.452,55.212C309.588,54.702 310.552,54.395 311.345,54.291C312.151,54.181 312.92,54.24 313.651,54.47C314.723,54.808 315.489,55.268 315.948,55.852C316.41,56.426 316.656,57.125 316.686,57.948C316.726,58.775 316.56,59.778 316.189,60.957L314.509,66.293C314.374,66.722 314.252,67.128 314.142,67.511C314.045,67.888 313.991,68.197 313.978,68.44C313.966,68.683 313.986,68.892 314.038,69.069C314.102,69.239 314.211,69.402 314.366,69.558C314.52,69.714 314.718,69.867 314.96,70.018L314.656,70.983L307.566,68.752L307.869,67.787C308.361,67.824 308.722,67.766 308.952,67.613C309.192,67.464 309.398,67.218 309.57,66.876C309.752,66.537 309.988,65.904 310.28,64.978L311.481,61.162C311.787,60.188 311.991,59.422 312.091,58.864C312.205,58.3 312.229,57.847 312.165,57.506C312.114,57.157 311.99,56.872 311.792,56.649C311.604,56.429 311.316,56.258 310.926,56.135C310.555,56.019 310.129,56.013 309.646,56.118C309.175,56.216 308.741,56.423 308.342,56.736C307.957,57.043 307.693,57.421 307.552,57.869L305.767,63.542C305.595,64.088 305.466,64.513 305.381,64.818C305.309,65.117 305.261,65.354 305.238,65.529C305.218,65.694 305.213,65.847 305.221,65.989C305.24,66.134 305.276,66.274 305.33,66.409C305.384,66.544 305.48,66.681 305.618,66.821C305.756,66.961 305.951,67.108 306.203,67.262L305.899,68.227L298.735,65.973L299.039,65.008C299.353,65.031 299.606,65.026 299.8,64.99C299.996,64.945 300.157,64.877 300.281,64.788C300.418,64.692 300.55,64.562 300.677,64.398C300.806,64.225 300.933,63.976 301.057,63.65C301.184,63.315 301.345,62.836 301.542,62.212L305.13,50.809C305.394,49.97 305.578,49.353 305.681,48.957C305.797,48.555 305.872,48.214 305.906,47.936C305.943,47.647 305.938,47.41 305.889,47.223C305.844,47.027 305.744,46.851 305.59,46.695C305.435,46.539 305.165,46.358 304.781,46.151L305.084,45.186L309.198,46.256L311.026,46.831L308.399,55.179L308.452,55.212Z" style="fill:white;fill-rule:nonzero;"/>
            <path d="M328.292,75.121C326.856,75.613 325.579,75.824 324.461,75.755C323.342,75.687 322.195,75.343 321.02,74.725C318.913,73.616 317.628,72.207 317.165,70.498C316.715,68.784 317.088,66.792 318.282,64.522C319.052,63.057 319.987,61.938 321.086,61.165C322.199,60.388 323.4,59.993 324.689,59.978C325.983,59.954 327.295,60.292 328.624,60.991C329.447,61.424 330.116,61.897 330.631,62.411C331.155,62.929 331.548,63.476 331.811,64.053C332.078,64.621 332.23,65.22 332.267,65.852C332.311,66.602 332.227,67.389 332.013,68.212C331.799,69.057 331.416,70.016 330.864,71.088L322.264,66.565C321.412,68.206 321.066,69.566 321.227,70.643C321.401,71.716 322.077,72.562 323.252,73.18C323.939,73.542 324.625,73.741 325.31,73.778C326,73.806 326.837,73.663 327.821,73.35L328.292,75.121ZM327.619,67.511C328.311,66.108 328.672,64.982 328.704,64.133C328.735,63.283 328.389,62.668 327.665,62.288C326.969,61.922 326.227,61.982 325.44,62.468C324.662,62.96 323.883,63.849 323.102,65.135L327.619,67.511Z" style="fill:white;fill-rule:nonzero;"/>
            <path d="M359.782,85.336C360.214,85.102 360.632,84.854 361.035,84.591C361.445,84.321 361.768,84.066 362.005,83.826C362.378,83.447 362.556,83.078 362.539,82.717C362.537,82.355 362.365,81.977 362.022,81.582L362.733,80.862L367.282,85.351L366.572,86.071C366.245,85.864 365.916,85.747 365.583,85.72C365.258,85.686 364.89,85.732 364.479,85.857C364.068,85.983 363.441,86.255 362.598,86.672L346.709,94.593L344.112,92.031L351.755,79.353L338.723,86.713L335.995,84.022L344.768,68.562C345.196,67.808 345.464,67.253 345.57,66.899C345.676,66.544 345.71,66.233 345.672,65.966C345.634,65.699 345.527,65.421 345.352,65.133L346.062,64.413L351.932,70.205L351.221,70.925C350.8,70.595 350.416,70.425 350.069,70.412C349.722,70.4 349.398,70.547 349.097,70.852C348.716,71.238 348.23,71.942 347.637,72.965L342.043,82.41L356.154,74.371L358.62,76.804L350.193,90.451L359.782,85.336Z" style="fill:white;fill-rule:nonzero;"/>
            <path d="M365.713,98.304C366.902,98.673 367.828,99.08 368.492,99.527C369.17,99.977 369.707,100.53 370.103,101.186C370.684,102.148 370.953,103 370.911,103.742C370.878,104.478 370.601,105.164 370.079,105.802C369.562,106.448 368.774,107.091 367.716,107.73L362.927,110.621C362.542,110.854 362.181,111.077 361.845,111.292C361.524,111.51 361.278,111.706 361.108,111.88C360.939,112.054 360.815,112.225 360.737,112.391C360.672,112.561 360.647,112.756 360.659,112.975C360.672,113.194 360.719,113.44 360.801,113.713L359.935,114.236L356.093,107.872L356.959,107.35C357.303,107.703 357.612,107.898 357.886,107.936C358.164,107.982 358.481,107.934 358.837,107.791C359.197,107.657 359.793,107.339 360.624,106.837L364.049,104.77C364.923,104.242 365.583,103.802 366.027,103.45C366.485,103.102 366.803,102.779 366.981,102.48C367.173,102.185 367.268,101.889 367.268,101.591C367.272,101.302 367.169,100.982 366.957,100.632C366.757,100.3 366.441,100.013 366.009,99.773C365.591,99.536 365.129,99.403 364.622,99.374C364.13,99.35 363.683,99.459 363.28,99.702L358.189,102.775C357.699,103.071 357.322,103.305 357.056,103.478C356.804,103.653 356.612,103.799 356.479,103.915C356.355,104.026 356.249,104.138 356.162,104.25C356.079,104.371 356.014,104.5 355.965,104.637C355.917,104.774 355.898,104.94 355.909,105.137C355.92,105.333 355.969,105.572 356.056,105.854L355.19,106.377L351.308,99.948L352.174,99.425C352.394,99.65 352.588,99.813 352.756,99.915C352.933,100.01 353.098,100.066 353.251,100.081C353.417,100.1 353.602,100.09 353.805,100.051C354.017,100.007 354.277,99.903 354.585,99.741C354.902,99.574 355.34,99.321 355.9,98.983L366.134,92.804C366.886,92.35 367.432,92.009 367.771,91.78C368.125,91.555 368.406,91.349 368.616,91.162C368.835,90.971 368.988,90.789 369.075,90.617C369.171,90.44 369.212,90.242 369.199,90.023C369.186,89.804 369.104,89.489 368.952,89.08L369.818,88.557L372.196,92.08L373.186,93.721L365.694,98.244L365.713,98.304Z" style="fill:white;fill-rule:nonzero;"/>
            <path d="M367.432,126.349C366.029,125.769 364.931,125.083 364.138,124.292C363.344,123.501 362.71,122.485 362.237,121.244C361.389,119.02 361.356,117.113 362.139,115.524C362.935,113.941 364.531,112.692 366.927,111.779C368.474,111.189 369.915,110.967 371.251,111.114C372.599,111.267 373.762,111.764 374.739,112.605C375.726,113.443 376.486,114.563 377.022,115.967C377.353,116.836 377.542,117.633 377.589,118.358C377.64,119.094 377.573,119.764 377.389,120.371C377.214,120.973 376.932,121.524 376.542,122.022C376.079,122.614 375.495,123.148 374.791,123.625C374.072,124.118 373.15,124.584 372.028,125.023L368.565,115.944C366.841,116.612 365.683,117.404 365.091,118.319C364.512,119.239 364.46,120.32 364.933,121.561C365.21,122.287 365.593,122.89 366.082,123.37C366.581,123.847 367.304,124.293 368.25,124.709L367.432,126.349ZM371.958,120.194C373.404,119.599 374.419,118.993 375.004,118.376C375.589,117.76 375.736,117.069 375.445,116.306C375.165,115.57 374.568,115.125 373.656,114.97C372.748,114.824 371.575,114.976 370.139,115.426L371.958,120.194Z" style="fill:white;fill-rule:nonzero;"/>
            <path d="M370.505,140.955C369.217,140.151 368.247,139.294 367.595,138.383C366.942,137.472 366.484,136.366 366.222,135.064C365.751,132.73 366.033,130.844 367.067,129.405C368.113,127.975 369.893,127.006 372.407,126.5C374.029,126.173 375.487,126.191 376.78,126.556C378.086,126.929 379.151,127.61 379.976,128.601C380.811,129.59 381.377,130.82 381.674,132.293C381.857,133.204 381.913,134.022 381.84,134.745C381.769,135.479 381.592,136.129 381.311,136.697C381.039,137.262 380.67,137.759 380.204,138.186C379.649,138.694 378.986,139.125 378.213,139.479C377.422,139.847 376.436,140.155 375.257,140.403L373.336,130.878C371.525,131.253 370.253,131.843 369.519,132.648C368.796,133.461 368.567,134.518 368.829,135.82C368.983,136.581 369.261,137.239 369.665,137.794C370.078,138.346 370.717,138.905 371.582,139.471L370.505,140.955ZM375.983,135.629C377.507,135.28 378.609,134.849 379.287,134.337C379.966,133.825 380.224,133.169 380.063,132.367C379.907,131.596 379.392,131.059 378.518,130.756C377.646,130.462 376.465,130.419 374.974,130.626L375.983,135.629Z" style="fill:white;fill-rule:nonzero;"/>
            <path d="M372.513,147.526C371.545,147.601 370.881,147.683 370.518,147.772C370.156,147.861 369.87,148.006 369.66,148.207C369.461,148.417 369.316,148.787 369.223,149.317L368.215,149.394L367.638,141.906L368.647,141.829C368.742,142.129 368.841,142.362 368.946,142.528C369.062,142.694 369.184,142.817 369.313,142.9C369.454,142.991 369.623,143.065 369.822,143.122C370.032,143.177 370.31,143.202 370.658,143.196C371.016,143.189 371.521,143.16 372.173,143.11L384.093,142.192C384.969,142.125 385.61,142.065 386.016,142.013C386.433,141.971 386.777,141.914 387.048,141.842C387.33,141.779 387.549,141.685 387.703,141.561C387.868,141.446 387.994,141.287 388.081,141.086C388.168,140.884 388.236,140.567 388.285,140.133L389.293,140.055L389.833,144.271L389.98,146.182L372.513,147.526Z" style="fill:white;fill-rule:nonzero;"/>
            <path d="M371.811,161.443L370.338,162.563C369.4,161.522 368.735,160.523 368.345,159.566C367.965,158.62 367.797,157.596 367.843,156.493C367.934,154.278 368.652,152.615 369.997,151.504C371.352,150.395 373.269,149.891 375.75,149.993C377.425,150.062 378.856,150.438 380.045,151.121C381.243,151.815 382.129,152.772 382.703,153.992C383.287,155.213 383.547,156.594 383.483,158.135C383.449,158.962 383.354,159.781 383.198,160.593C383.051,161.415 382.862,162.159 382.63,162.825L378.94,162.672L379.065,159.64C380.031,159.527 380.739,159.326 381.191,159.038C381.643,158.75 381.88,158.32 381.904,157.748C381.919,157.37 381.837,157.004 381.658,156.649C381.488,156.304 381.174,155.99 380.715,155.705C380.266,155.431 379.652,155.201 378.872,155.015C378.102,154.83 377.12,154.713 375.926,154.664C374.731,154.614 373.716,154.685 372.88,154.875C372.054,155.066 371.406,155.403 370.936,155.884C370.476,156.367 370.23,157.016 370.196,157.833C370.172,158.425 370.276,158.987 370.51,159.518C370.743,160.059 371.177,160.701 371.811,161.443Z" style="fill:white;fill-rule:nonzero;"/>
            <path d="M379.778,170.436C380.404,171.512 380.81,172.44 380.996,173.218C381.19,174.008 381.21,174.778 381.058,175.529C380.834,176.631 380.456,177.44 379.923,177.958C379.4,178.477 378.731,178.794 377.915,178.91C377.097,179.036 376.082,178.976 374.871,178.729L369.389,177.615C368.948,177.526 368.531,177.446 368.139,177.377C367.754,177.32 367.441,177.298 367.198,177.311C366.956,177.324 366.749,177.366 366.579,177.435C366.416,177.517 366.265,177.643 366.127,177.813C365.988,177.983 365.856,178.196 365.731,178.452L364.74,178.25L366.22,170.966L367.211,171.167C367.226,171.66 367.321,172.013 367.497,172.226C367.67,172.449 367.936,172.628 368.295,172.764C368.651,172.909 369.304,173.078 370.256,173.272L374.176,174.068C375.177,174.272 375.96,174.394 376.525,174.436C377.098,174.49 377.551,174.467 377.884,174.368C378.225,174.281 378.496,174.128 378.697,173.908C378.896,173.698 379.036,173.393 379.118,172.992C379.195,172.612 379.156,172.187 379.002,171.718C378.855,171.26 378.604,170.85 378.251,170.486C377.905,170.134 377.502,169.911 377.042,169.818L371.214,168.634C370.653,168.52 370.217,168.436 369.904,168.383C369.6,168.342 369.359,168.319 369.183,168.315C369.017,168.312 368.863,168.323 368.723,168.346C368.581,168.38 368.445,168.431 368.317,168.498C368.188,168.566 368.062,168.676 367.937,168.828C367.812,168.98 367.686,169.189 367.559,169.455L366.568,169.253L368.064,161.894L369.055,162.095C369.064,162.41 369.096,162.661 369.152,162.85C369.217,163.04 369.301,163.193 369.403,163.308C369.513,163.434 369.656,163.552 369.832,163.661C370.018,163.771 370.279,163.871 370.615,163.961C370.962,164.052 371.455,164.163 372.096,164.293L383.812,166.674C384.673,166.849 385.306,166.967 385.71,167.028C386.123,167.102 386.469,167.141 386.75,167.146C387.04,167.153 387.276,167.122 387.456,167.055C387.647,166.989 387.812,166.871 387.95,166.701C388.089,166.532 388.241,166.244 388.407,165.84L389.398,166.042L388.763,170.245L388.382,172.122L379.805,170.379L379.778,170.436Z" style="fill:white;fill-rule:nonzero;"/>
            <path d="M363.094,187.505L363.251,187.32C362.802,186.239 362.554,185.26 362.508,184.384C362.458,183.516 362.598,182.67 362.927,181.844C363.253,181.028 363.684,180.375 364.221,179.885C364.763,179.409 365.362,179.12 366.019,179.019C366.671,178.927 367.344,179.019 368.037,179.296C369.432,179.853 370.255,180.973 370.507,182.658C370.765,184.356 370.441,186.642 369.537,189.515L370.889,190.055C371.771,190.407 372.49,190.578 373.044,190.568C373.607,190.562 374.046,190.44 374.361,190.203C374.685,189.969 374.935,189.634 375.109,189.198C375.283,188.761 375.359,188.351 375.336,187.968C375.309,187.594 375.133,187.194 374.808,186.767C374.493,186.344 373.985,185.922 373.284,185.499L374.358,182.809L376.949,183.843C376.99,184.871 376.999,185.716 376.977,186.378C376.954,187.041 376.898,187.678 376.807,188.291C376.722,188.917 376.62,189.465 376.498,189.934C376.377,190.402 376.228,190.86 376.05,191.306C375.592,192.454 375.074,193.309 374.498,193.871C373.918,194.443 373.218,194.763 372.398,194.832C371.579,194.901 370.566,194.695 369.361,194.214L363.809,191.999C363.183,191.749 362.693,191.57 362.34,191.462C361.987,191.354 361.714,191.295 361.52,191.283C361.333,191.285 361.168,191.313 361.025,191.366C360.892,191.423 360.766,191.505 360.647,191.611C360.533,191.731 360.353,191.962 360.107,192.303L359.167,191.928L361.28,186.633L363.094,187.505ZM368.136,188.973C368.685,187.487 368.845,186.285 368.617,185.369C368.385,184.462 367.775,183.812 366.788,183.418C366.2,183.183 365.684,183.165 365.242,183.362C364.81,183.564 364.48,183.949 364.253,184.519C364.079,184.955 364.028,185.414 364.1,185.894C364.182,186.377 364.372,186.811 364.671,187.194C364.969,187.577 365.336,187.855 365.773,188.03L368.136,188.973Z" style="fill:white;fill-rule:nonzero;"/>
            <path d="M359.827,192.319C359.7,192.821 359.686,193.204 359.784,193.469C359.877,193.743 360.07,193.996 360.362,194.228C360.649,194.47 361.216,194.826 362.065,195.297L368.296,198.757C368.733,199 369.099,199.174 369.391,199.278C369.679,199.391 369.936,199.434 370.161,199.407C370.381,199.39 370.586,199.305 370.776,199.153C370.969,199.015 371.182,198.811 371.413,198.542L372.324,199.048L370.385,202.793L369.455,204.468L359.928,199.177C359.428,198.899 359.037,198.688 358.755,198.543C358.477,198.412 358.254,198.318 358.088,198.26C357.93,198.208 357.78,198.171 357.64,198.151C357.494,198.141 357.349,198.148 357.206,198.174C357.063,198.2 356.91,198.266 356.745,198.373C356.58,198.481 356.397,198.642 356.196,198.857L355.311,198.366L358.943,191.827L359.827,192.319Z" style="fill:white;fill-rule:nonzero;"/>
            <path d="M362.556,210.839L362.403,210.973C362.681,212.092 362.747,213.084 362.603,213.95C362.459,214.815 362.118,215.621 361.581,216.368C361.217,216.874 360.782,217.366 360.274,217.844L356.84,215.374L358.46,213.122C359.042,213.327 359.546,213.406 359.97,213.358C360.388,213.319 360.735,213.109 361.009,212.727C361.14,212.545 361.228,212.3 361.273,211.992C361.321,211.699 361.309,211.383 361.239,211.043C361.171,210.717 361.059,210.435 360.903,210.197C360.75,209.973 360.574,209.771 360.376,209.591C360.178,209.411 359.864,209.166 359.433,208.856L355.463,206.001C354.675,205.434 354.103,205.066 353.746,204.898C353.389,204.729 353.057,204.666 352.749,204.709C352.449,204.758 352.113,204.963 351.74,205.324L350.919,204.733L355.331,198.599L356.152,199.19C355.974,199.666 355.918,200.041 355.985,200.315C356.045,200.598 356.207,200.872 356.47,201.137C356.727,201.41 357.249,201.829 358.037,202.396L363.151,206.074C363.765,206.516 364.226,206.829 364.534,207.013C364.845,207.211 365.117,207.331 365.351,207.373C365.587,207.43 365.819,207.414 366.046,207.326C366.275,207.252 366.575,207.046 366.944,206.707L367.79,207.316L365.438,210.796L364.31,212.364L362.556,210.839Z" style="fill:white;fill-rule:nonzero;"/>
        </g>
        <g transform="matrix(1.00662,0,0,1.00662,855.615,1494.32)">
            <g transform="matrix(229.167,0,0,229.167,319.138,21.4171)">
            </g>
            <text x="28.423px" y="21.417px" style="font-family:'Cambria-Bold', 'Cambria';font-weight:700;font-size:229.167px;fill:white;">T<tspan x="154.272px 184.113px 213.954px " y="21.417px 21.417px 21.417px ">  s</tspan></text>
        </g>
        <g transform="matrix(3.125,0,0,3.125,-21.8196,951.591)">
            <path d="M343.593,137.628C343.593,137.628 344.805,141.424 339.923,147.884L341.954,150.117C341.954,150.117 354.537,133.111 344.051,128.523C344.051,128.523 338.088,127.049 338.448,133.438C338.808,139.828 343.593,137.628 343.593,137.628Z" style="fill:white;"/>
        </g>
    </g>
</svg>
