<?xml version="1.0" standalone="no"?>
<!DOCTYPE svg PUBLIC "-//W3C//DTD SVG 20010904//EN"
 "http://www.w3.org/TR/2001/REC-SVG-20010904/DTD/svg10.dtd">
<svg version="1.0" xmlns="http://www.w3.org/2000/svg"
 width="332.000000pt" height="332.000000pt" viewBox="0 0 332.000000 332.000000"
 preserveAspectRatio="xMidYMid meet">
<metadata>
Created by potrace 1.14, written by Peter Selinger 2001-2017
</metadata>
<g transform="translate(0.000000,332.000000) scale(0.100000,-0.100000)"
fill="#000000" stroke="none">
<path d="M2673 3275 c0 -8 6 -15 13 -15 8 0 11 6 8 15 -4 8 -9 15 -13 15 -4 0
-8 -7 -8 -15z"/>
<path d="M2681 3233 c11 -13 11 -15 1 -9 -9 5 -13 3 -11 -5 5 -37 -2 -59 -18
-60 -15 0 -15 -2 -3 -7 8 -4 16 -13 18 -21 2 -11 0 -12 -10 -3 -11 9 -14 7
-15 -9 -1 -11 2 -17 8 -14 14 9 11 -3 -8 -24 -9 -11 -21 -17 -27 -14 -6 4 -4
-2 4 -12 8 -10 10 -16 4 -12 -14 8 -27 -20 -17 -35 4 -7 1 -8 -6 -4 -7 5 -10
14 -7 22 3 8 1 14 -4 14 -9 0 -15 -31 -11 -54 1 -5 -5 -4 -13 4 -14 11 -16 9
-16 -9 0 -33 -1 -35 -17 -53 -9 -10 -28 -18 -42 -19 -19 0 -22 -2 -10 -7 14
-6 15 -9 3 -20 -8 -7 -14 -8 -14 -2 0 5 -5 10 -11 10 -6 0 -9 -7 -5 -15 4 -13
2 -14 -14 -5 -11 6 -20 7 -19 3 5 -30 -4 -44 -30 -49 -18 -4 -31 -14 -35 -27
-3 -12 -8 -18 -12 -14 -4 4 -13 -1 -21 -11 -8 -9 -12 -12 -9 -5 4 6 2 15 -4
18 -6 4 -10 3 -9 -2 3 -17 -1 -33 -8 -32 -5 1 -19 1 -33 0 -20 -1 -22 -3 -10
-11 13 -9 13 -10 0 -11 -8 -1 -19 -1 -24 0 -4 1 -15 -6 -22 -16 -13 -17 -14
-17 -8 0 10 27 -5 20 -25 -14 -14 -23 -20 -26 -24 -15 -4 9 -13 13 -22 10 -8
-3 -13 -9 -10 -14 2 -4 -7 -12 -20 -18 -19 -9 -25 -9 -25 1 0 6 -5 4 -11 -5
-5 -10 -15 -18 -22 -18 -7 0 -6 4 3 10 12 8 9 10 -12 7 -15 -1 -31 -7 -35 -12
-4 -4 -3 -5 4 -1 6 3 14 3 17 -2 3 -4 -14 -9 -36 -11 -47 -2 -61 -8 -53 -22 7
-10 0 -11 -60 -11 -22 0 -34 -2 -27 -5 6 -3 12 -9 12 -14 0 -6 -8 -5 -20 1
-16 9 -18 8 -14 -5 4 -9 3 -15 -2 -13 -5 1 -19 -3 -31 -10 -12 -7 -26 -12 -30
-11 -4 1 -21 1 -36 0 -20 -1 -26 -5 -21 -13 5 -8 0 -7 -11 2 -17 13 -18 13
-13 -1 4 -9 1 -16 -8 -16 -7 0 -11 4 -8 9 3 4 1 8 -5 8 -5 0 -12 -4 -15 -9 -3
-5 -17 -8 -32 -8 -14 0 -31 -7 -36 -14 -7 -11 -11 -11 -15 -1 -6 16 -27 16
-20 -1 6 -15 -20 -16 -42 -2 -10 5 -12 4 -7 -3 7 -11 -6 -17 -27 -13 -5 1 -6
-9 -3 -21 3 -13 3 -17 0 -10 -3 6 -11 9 -16 6 -6 -4 -8 -2 -4 4 3 6 2 14 -4
17 -6 4 -10 3 -9 -2 3 -18 -1 -36 -8 -30 -3 4 -13 1 -21 -6 -13 -9 -14 -9 -8
0 5 10 1 11 -17 4 -14 -6 -28 -7 -33 -3 -4 4 -5 3 -2 -3 9 -15 -17 -34 -32
-25 -16 10 -42 1 -34 -11 3 -5 2 -9 -3 -10 -20 -1 -80 -10 -98 -14 -11 -2 -23
-4 -27 -4 -5 -1 -8 -8 -8 -17 0 -8 -5 -12 -11 -8 -6 3 -15 0 -20 -7 -6 -10 -9
-11 -9 -1 0 6 -4 12 -9 12 -5 0 -8 -8 -7 -17 0 -12 -6 -18 -19 -19 -40 -2 -46
-4 -40 -14 6 -9 -22 -15 -52 -11 -7 1 -13 -3 -13 -9 0 -5 8 -10 18 -11 13 0
12 -2 -6 -9 -12 -5 -30 -6 -39 -3 -13 5 -15 2 -10 -12 7 -16 5 -16 -10 -4 -9
8 -14 9 -10 3 3 -6 -8 -19 -25 -29 -22 -12 -29 -14 -23 -4 6 10 5 11 -3 4 -6
-6 -13 -20 -15 -32 -3 -24 -17 -44 -17 -25 0 7 -5 12 -11 12 -6 0 -9 -6 -6
-14 4 -10 0 -12 -15 -8 -14 3 -19 1 -14 -6 4 -7 1 -12 -9 -12 -11 0 -15 -5
-11 -16 3 -8 2 -12 -4 -9 -6 3 -10 1 -10 -5 0 -6 -4 -9 -8 -6 -5 3 -9 -1 -10
-9 -1 -8 -3 -22 -4 -30 -1 -8 -5 -16 -10 -16 -4 -1 -12 -2 -17 -3 -5 0 -13 -5
-18 -10 -5 -5 -2 -6 7 -2 8 4 6 1 -4 -8 -10 -8 -23 -13 -27 -10 -5 3 -6 -2 -3
-11 4 -9 -1 -22 -12 -31 -11 -9 -13 -13 -6 -9 6 3 12 1 12 -4 0 -6 -4 -11 -10
-11 -5 0 -10 -5 -10 -11 0 -5 6 -7 13 -4 6 4 3 0 -7 -9 -10 -8 -24 -13 -30
-10 -6 3 -3 -1 6 -9 23 -18 23 -31 1 -23 -10 4 -15 4 -11 1 3 -4 2 -20 -2 -36
-5 -17 -5 -29 1 -29 5 0 9 -5 9 -11 0 -5 -5 -7 -11 -3 -7 4 -7 -1 1 -16 7 -12
8 -20 2 -16 -5 3 -13 -1 -16 -10 -3 -9 -11 -12 -18 -8 -10 5 -10 4 0 -7 11
-12 14 -12 22 1 8 13 10 12 10 -3 0 -10 -6 -20 -13 -23 -19 -7 -19 -61 -1 -68
8 -3 13 0 11 7 -1 7 7 11 18 10 11 -1 14 0 7 3 -6 3 -10 10 -6 15 6 10 15 47
16 66 1 7 4 12 7 11 20 -2 31 3 26 12 -3 6 -1 10 6 10 6 0 9 8 6 19 -4 15 0
18 19 16 16 -1 23 2 22 11 -2 7 5 19 14 26 10 7 19 25 20 39 1 18 7 25 16 22
7 -3 20 3 28 13 14 18 14 18 9 -1 -5 -16 -3 -15 6 3 8 14 18 21 27 17 10 -4
13 0 10 13 -6 20 22 44 57 49 11 2 27 11 35 21 9 11 23 18 33 16 9 -1 28 11
42 28 14 17 29 28 32 24 3 -3 12 -1 19 4 6 6 18 9 25 8 8 -2 13 4 12 12 -2 12
8 15 47 14 40 0 47 2 38 13 -6 7 -9 13 -7 14 2 1 24 3 48 5 24 2 46 6 49 9 3
2 12 -1 21 -7 13 -10 14 -10 4 2 -18 19 -16 29 5 26 9 -2 22 3 27 10 6 8 24
15 40 17 17 2 35 6 40 8 6 3 20 4 32 3 12 0 20 3 17 8 -3 4 -9 6 -14 3 -5 -3
-11 -1 -14 4 -4 5 2 8 11 6 10 -1 24 3 32 9 12 9 13 8 7 -3 -5 -8 3 -6 20 5
15 11 25 13 21 7 -5 -7 -4 -13 2 -13 6 0 11 5 11 10 0 6 5 10 11 10 5 0 8 -4
4 -9 -3 -5 0 -13 6 -17 7 -4 9 -3 6 2 -12 21 12 34 65 36 32 1 56 7 55 13 -1
5 10 11 26 13 18 2 25 7 20 15 -5 8 -2 8 9 -1 16 -13 70 -13 62 0 -3 5 -10 5
-16 2 -7 -5 -8 -2 -4 5 5 7 14 10 22 7 7 -3 20 2 29 10 8 9 15 11 15 5 0 -6 5
-11 11 -11 5 0 8 4 5 9 -3 5 1 12 10 15 8 3 12 2 9 -3 -3 -5 0 -13 6 -17 8 -4
9 -3 5 4 -8 13 20 28 49 27 11 -1 28 5 37 13 9 8 31 15 48 16 22 0 29 5 25 16
-4 11 -1 10 9 -2 17 -23 30 -23 22 -2 -5 14 -4 15 9 4 13 -11 14 -10 9 3 -4
12 -1 14 17 10 14 -4 20 -2 16 4 -4 7 5 9 25 7 29 -4 30 -3 13 10 -18 13 -18
14 7 11 14 -2 31 1 39 6 12 7 12 9 -1 9 -13 0 -13 1 0 10 21 13 33 12 24 -2
-4 -6 3 -4 15 5 13 8 28 14 35 13 6 -2 7 0 1 2 -5 3 6 11 25 17 19 7 34 18 32
25 -1 6 2 9 8 5 6 -3 8 -11 5 -16 -4 -5 -2 -9 4 -9 10 0 27 39 23 53 -1 5 2 6
7 3 5 -4 12 -2 15 2 3 5 17 8 31 7 14 -2 23 1 19 6 -3 5 -10 6 -16 3 -7 -4 -8
-2 -4 5 4 6 12 9 17 6 5 -4 9 -1 9 5 0 6 4 9 8 6 4 -2 14 -1 22 5 13 7 13 9 0
9 -12 1 -11 3 3 11 9 5 22 7 29 3 7 -5 9 0 6 14 -4 12 -2 20 2 17 5 -3 15 2
24 10 8 9 19 16 23 15 4 0 8 10 8 22 0 14 11 26 32 37 18 9 33 20 33 24 0 5
-4 6 -9 3 -5 -4 -4 5 2 19 7 14 18 25 26 25 11 0 9 4 -5 16 -10 8 -13 13 -6 9
14 -7 20 6 25 57 2 20 11 48 21 63 10 15 13 24 7 21 -7 -5 -9 -1 -5 8 3 9 11
13 16 10 6 -4 5 4 -2 16 -11 21 -10 22 6 16 10 -4 15 -4 11 0 -4 4 -1 14 6 22
11 13 9 14 -13 2 l-25 -13 20 23 c16 19 17 22 4 17 -13 -4 -16 -1 -12 14 3 10
9 19 14 19 5 0 9 5 9 11 0 5 -4 8 -8 5 -4 -2 -14 4 -21 16 -7 11 -9 18 -4 15
4 -3 15 2 23 11 13 14 12 15 -3 9 -15 -6 -17 -3 -12 13 5 16 2 20 -16 20 -19
0 -20 -2 -8 -17z m-291 -427 c0 -3 -4 -8 -10 -11 -5 -3 -10 -1 -10 4 0 6 5 11
10 11 6 0 10 -2 10 -4z m-423 -192 c-3 -3 -12 -4 -19 -1 -8 3 -5 6 6 6 11 1
17 -2 13 -5z m-812 -464 c3 -6 -1 -7 -9 -4 -18 7 -21 14 -7 14 6 0 13 -4 16
-10z m-255 -124 c-7 -7 -13 -7 -20 0 -6 6 -3 10 10 10 13 0 16 -4 10 -10z
m-180 -146 c0 -5 -5 -10 -11 -10 -5 0 -7 5 -4 10 3 6 8 10 11 10 2 0 4 -4 4
-10z m-130 -178 c0 -5 -6 -16 -13 -27 -13 -17 -14 -16 -11 6 3 31 2 29 14 29
6 0 10 -4 10 -8z"/>
<path d="M1470 3189 c0 -5 -4 -8 -9 -4 -5 3 -13 0 -17 -6 -5 -8 -3 -9 6 -4 9
6 11 4 5 -5 -6 -10 -11 -9 -23 6 -13 18 -14 18 -7 -4 3 -12 3 -22 -2 -21 -24
4 -43 -2 -37 -12 4 -7 1 -10 -7 -7 -8 3 -20 -2 -27 -11 -8 -9 -11 -10 -7 -3 3
6 1 12 -4 12 -6 0 -11 -9 -11 -19 0 -11 -5 -23 -12 -27 -7 -5 -8 -3 -3 6 5 8
4 11 -3 6 -6 -4 -9 -13 -6 -20 3 -8 1 -17 -5 -20 -6 -4 -8 -13 -4 -21 3 -9 1
-21 -5 -28 -5 -6 -8 -20 -7 -29 2 -10 -3 -18 -11 -18 -12 0 -12 -4 -4 -20 8
-15 8 -20 -2 -21 -7 0 -4 -4 7 -9 11 -5 14 -9 8 -9 -7 -1 -13 -6 -13 -12 0 -5
4 -8 9 -4 5 3 12 1 16 -5 3 -5 -2 -10 -12 -10 -15 0 -15 -2 -4 -9 14 -9 19
-22 23 -64 2 -11 8 -15 17 -12 9 3 12 3 9 -1 -4 -3 0 -13 8 -22 13 -12 13 -16
2 -23 -13 -9 4 -13 40 -12 9 1 12 -6 9 -19 -4 -15 -3 -17 8 -8 9 7 14 7 17 1
1 -6 15 -12 31 -13 16 -1 27 -8 27 -18 0 -13 1 -13 10 0 5 8 10 11 10 5 0 -12
128 -11 138 1 4 4 -1 4 -11 1 -11 -4 -16 -3 -12 3 3 6 15 10 26 10 11 0 18 4
15 9 -4 5 4 7 16 4 19 -4 20 -3 8 6 -11 8 -11 11 -2 12 27 3 31 4 39 13 5 5 3
6 -4 2 -15 -9 -17 3 -3 24 6 10 10 11 10 3 0 -7 5 -13 11 -13 6 0 8 7 5 16 -3
8 -2 12 4 9 6 -3 10 -1 10 4 0 6 7 11 16 11 14 0 15 2 3 17 -10 11 -10 14 -1
9 6 -4 12 -2 12 3 0 6 5 11 11 11 5 0 7 -5 3 -12 -4 -6 -3 -8 3 -5 11 7 9 79
-2 97 -5 8 -4 11 2 7 7 -4 10 3 9 18 -1 18 -5 24 -16 20 -9 -3 -7 1 4 10 20
15 20 15 0 16 -17 0 -17 1 -2 7 12 5 15 11 9 21 -5 8 -7 21 -4 30 4 12 3 13
-4 3 -8 -10 -13 -9 -24 4 -9 12 -10 15 -1 10 6 -4 12 -2 12 3 0 6 -5 11 -11
11 -5 0 -7 6 -3 13 6 9 4 9 -8 -1 -13 -10 -18 -10 -24 -1 -5 8 -3 9 6 4 8 -5
11 -3 8 6 -3 8 -14 13 -26 13 -13 -1 -19 3 -15 12 3 9 -2 14 -15 14 -12 0 -24
5 -28 12 -5 8 -1 9 12 4 15 -6 16 -4 7 5 -6 6 -25 12 -41 13 -18 1 -28 6 -25
13 3 7 -16 12 -56 15 -43 2 -61 -1 -61 -9 0 -6 -4 -14 -9 -17 -5 -4 -7 3 -4
14 3 11 3 20 -1 20 -3 0 -6 -5 -6 -11z"/>
<path d="M1710 3119 c0 -5 5 -7 10 -4 6 3 10 8 10 11 0 2 -4 4 -10 4 -5 0 -10
-5 -10 -11z"/>
<path d="M1260 2979 c0 -5 5 -7 10 -4 6 3 10 8 10 11 0 2 -4 4 -10 4 -5 0 -10
-5 -10 -11z"/>
<path d="M2685 2970 c-3 -5 -1 -10 4 -10 6 0 11 5 11 10 0 6 -2 10 -4 10 -3 0
-8 -4 -11 -10z"/>
<path d="M2524 2952 c3 -5 0 -13 -6 -15 -9 -4 -10 -6 -1 -6 17 -1 25 16 12 25
-7 4 -9 3 -5 -4z"/>
<path d="M2685 2940 c-3 -5 -1 -10 4 -10 6 0 11 5 11 10 0 6 -2 10 -4 10 -3 0
-8 -4 -11 -10z"/>
<path d="M2595 2760 c-3 -6 1 -7 9 -4 18 7 21 14 7 14 -6 0 -13 -4 -16 -10z"/>
<path d="M1430 2676 c0 -2 7 -7 16 -10 8 -3 12 -2 9 4 -6 10 -25 14 -25 6z"/>
<path d="M2391 2587 c-8 -10 -7 -14 2 -14 8 0 14 6 14 14 0 7 -1 13 -2 13 -2
0 -8 -6 -14 -13z"/>
<path d="M1750 2558 c0 -11 12 -10 30 2 12 7 10 9 -8 7 -12 0 -22 -5 -22 -9z"/>
<path d="M1235 2400 c3 -5 8 -10 11 -10 2 0 4 5 4 10 0 6 -5 10 -11 10 -5 0
-7 -4 -4 -10z"/>
<path d="M1680 2206 c14 -18 14 -19 -7 -8 -15 9 -24 9 -28 1 -4 -6 -13 -8 -21
-5 -8 3 -14 0 -14 -6 0 -6 -6 -5 -16 3 -15 12 -16 11 -9 -11 4 -14 12 -27 16
-28 5 -2 6 -9 3 -14 -4 -7 -2 -8 5 -4 6 4 9 11 6 16 -3 5 -1 12 5 15 6 4 10 3
9 -2 -6 -32 16 -40 50 -19 9 6 12 5 8 -1 -4 -6 10 -10 34 -11 22 -1 47 -9 55
-17 9 -8 23 -15 32 -14 11 0 12 2 5 6 -7 2 -13 9 -13 15 0 5 12 0 26 -11 16
-12 36 -19 50 -17 16 3 21 0 18 -8 -3 -9 7 -16 28 -20 29 -7 31 -9 13 -16 -14
-6 -15 -9 -5 -9 9 -1 22 5 29 12 11 10 12 9 6 -2 -6 -10 -2 -12 13 -7 11 4 23
2 27 -4 4 -6 13 -9 21 -6 7 3 17 -1 22 -9 4 -8 20 -16 34 -17 15 -1 24 -6 22
-10 -3 -5 -10 -5 -16 -2 -7 4 -8 2 -4 -5 4 -6 12 -9 17 -6 5 4 9 2 9 -4 0 -6
7 -8 15 -5 9 4 15 0 15 -9 0 -16 26 -30 40 -22 5 3 12 0 16 -6 5 -8 3 -9 -6
-4 -9 5 -11 4 -6 -4 6 -9 11 -9 22 0 8 6 17 9 21 5 3 -3 1 -6 -5 -6 -7 0 -12
-4 -12 -9 0 -4 8 -8 18 -8 32 0 42 -3 42 -13 0 -5 -8 -7 -17 -3 -12 3 -10 0 5
-11 12 -10 19 -22 16 -28 -4 -7 -2 -8 5 -4 6 4 9 11 7 15 -3 4 1 8 8 8 8 0 12
-6 9 -14 -3 -7 1 -13 9 -13 17 0 61 -44 53 -52 -3 -3 6 -8 20 -12 14 -4 25
-13 25 -21 0 -8 9 -20 20 -27 11 -7 20 -20 20 -29 0 -8 7 -16 15 -17 8 -1 21
-3 29 -4 8 -1 15 -4 14 -7 -2 -22 4 -31 15 -25 7 5 6 0 -3 -11 -14 -17 -13
-18 3 -12 10 4 16 3 12 -2 -10 -17 7 -42 24 -37 11 4 10 2 -3 -9 -17 -13 -18
-15 -3 -15 10 0 17 -8 17 -20 0 -12 7 -20 18 -21 14 0 14 -2 -3 -9 -17 -7 -16
-9 9 -9 29 -1 29 -2 10 -16 -18 -15 -18 -15 0 -8 13 4 17 3 12 -5 -4 -7 -2
-12 5 -12 8 0 8 -4 -1 -15 -11 -13 -10 -14 2 -10 21 8 50 -27 37 -45 -9 -13
-10 -12 -5 2 3 10 1 20 -3 22 -7 5 -8 -12 -2 -47 0 -5 6 -5 11 -2 6 3 10 2 10
-4 0 -5 -6 -12 -12 -14 -8 -3 -7 -6 4 -6 9 -1 20 -6 24 -13 4 -7 3 -8 -4 -4
-7 4 -12 1 -12 -9 0 -10 5 -13 13 -9 8 5 8 2 -2 -9 -13 -16 -9 -21 14 -18 6 1
1 -6 -9 -14 -18 -14 -19 -15 -2 -15 12 0 16 -5 12 -15 -3 -8 -1 -15 5 -15 6 0
8 -9 4 -21 -5 -14 -3 -19 3 -15 6 3 14 1 18 -5 4 -7 3 -9 -4 -5 -6 3 -13 2
-17 -4 -3 -5 1 -10 9 -10 10 0 13 -6 10 -15 -4 -8 -11 -12 -17 -8 -6 3 -7 1
-3 -6 5 -8 12 -9 19 -2 9 7 12 -16 12 -90 0 -54 4 -99 9 -99 5 0 2 -8 -5 -17
-10 -11 -10 -14 -1 -9 14 9 15 1 3 -23 -7 -13 -6 -18 3 -18 8 0 12 12 11 29
-1 16 1 31 5 33 9 6 7 66 -4 83 -4 6 -2 12 3 12 6 0 11 5 11 11 0 5 -4 7 -10
4 -6 -3 -7 1 -4 10 4 11 10 12 18 6 9 -8 12 2 10 37 0 26 -2 47 -4 47 -1 0 -4
10 -5 22 -1 14 2 20 12 16 13 -5 13 1 -3 42 -10 27 -12 65 -2 59 4 -3 8 0 8 5
0 6 -5 11 -12 11 -6 0 -8 3 -5 6 3 4 2 15 -3 25 -7 12 -6 20 2 25 6 4 8 3 4
-4 -3 -6 -3 -13 2 -16 4 -2 8 6 8 19 0 13 -4 21 -8 19 -4 -3 -8 4 -8 15 0 12
-5 21 -12 21 -9 0 -9 3 -1 11 11 11 10 18 -4 59 -3 8 -7 28 -8 44 -2 16 -9 32
-16 37 -12 7 -11 9 1 9 12 1 11 3 -2 11 -10 5 -18 15 -18 22 0 7 4 6 10 -3 8
-13 10 -12 10 3 0 9 -4 18 -10 18 -5 1 -14 2 -19 3 -5 0 -13 5 -18 10 -4 5 -3
6 3 3 7 -4 12 3 12 18 0 23 -2 24 -14 8 -12 -17 -13 -17 -13 2 -2 62 -6 75
-18 71 -7 -3 -12 0 -10 7 1 7 -6 11 -18 9 l-20 -4 20 16 20 15 -20 1 c-17 0
-17 2 -5 10 13 9 13 10 0 11 -8 1 -18 1 -22 0 -5 0 -8 4 -8 10 0 5 -5 7 -12 3
-8 -5 -9 -2 -5 9 4 11 1 17 -8 17 -9 0 -15 9 -15 21 0 15 -4 19 -16 15 -15 -6
-15 -4 -3 11 12 15 12 16 -3 10 -12 -4 -18 -2 -18 7 0 22 -24 38 -38 24 -8 -8
-13 -4 -17 15 -5 19 -11 24 -23 19 -15 -5 -15 -3 -4 10 10 13 10 18 1 24 -8 4
-9 3 -5 -4 4 -7 2 -12 -3 -12 -6 0 -11 5 -11 11 0 5 -4 7 -10 4 -5 -3 -10 1
-10 9 0 8 -5 18 -12 22 -8 5 -9 2 -4 -11 5 -15 4 -16 -8 -6 -8 7 -21 9 -28 5
-7 -4 -10 -4 -6 1 4 4 0 14 -10 22 -9 8 -11 11 -3 7 9 -5 12 -3 7 5 -4 6 -11
9 -16 6 -5 -3 -11 -1 -15 5 -3 5 -11 10 -16 10 -6 0 -7 -5 -3 -12 5 -7 3 -8
-6 -3 -10 6 -10 11 4 20 15 11 14 13 -9 14 -60 4 -63 5 -57 21 5 13 4 13 -13
0 -10 -8 -16 -10 -12 -4 8 14 -17 26 -38 18 -8 -4 -15 -1 -15 6 0 6 4 9 8 6 4
-2 14 -1 21 3 7 5 -11 8 -41 8 -29 0 -66 3 -83 7 -16 4 -35 8 -42 8 -6 1 -9 8
-6 17 4 13 2 13 -10 -1 -16 -21 -28 -23 -24 -6 1 6 -11 12 -28 13 -48 4 -51 5
-35 15 8 5 11 10 7 10 -4 0 -19 -7 -32 -16 -14 -9 -25 -12 -25 -6 0 6 6 12 13
15 6 3 2 4 -10 4 -12 -1 -20 -4 -17 -8 2 -4 -3 -10 -12 -13 -8 -3 -12 -2 -9 4
3 6 3 10 -2 11 -4 0 -16 2 -26 4 -9 2 -15 -1 -11 -6 3 -5 -2 -9 -11 -9 -9 0
-13 5 -10 10 3 6 2 10 -3 10 -6 0 -13 -7 -16 -15 -5 -14 -9 -14 -33 2 -27 17
-28 17 -13 -1z m-10 -50 c0 -2 -7 -7 -16 -10 -8 -3 -12 -2 -9 4 6 10 25 14 25
6z m828 -241 c-3 -3 -9 2 -12 12 -6 14 -5 15 5 6 7 -7 10 -15 7 -18z m279
-814 c0 -11 -7 -17 -14 -14 -9 4 -9 8 0 19 16 17 16 17 14 -5z"/>
<path d="M1525 2191 c6 -11 4 -13 -11 -8 -18 7 -18 7 0 -8 11 -8 15 -15 9 -15
-6 0 -14 -8 -17 -17 -5 -13 0 -11 18 6 24 23 38 17 16 -5 -8 -8 -2 -10 17 -9
22 1 27 6 25 21 -4 24 -32 55 -32 35 0 -11 -3 -11 -17 0 -14 12 -16 12 -8 0z
m49 -39 c3 -5 -1 -9 -9 -9 -8 0 -12 4 -9 9 3 4 7 8 9 8 2 0 6 -4 9 -8z"/>
<path d="M2003 2183 c9 -8 47 -11 47 -4 0 5 -11 9 -25 9 -14 0 -24 -2 -22 -5z"/>
<path d="M1445 2150 c-3 -6 1 -7 9 -4 18 7 21 14 7 14 -6 0 -13 -4 -16 -10z"/>
<path d="M1476 2143 c-6 -14 -5 -15 5 -6 7 7 10 15 7 18 -3 3 -9 -2 -12 -12z"/>
<path d="M2227 2119 c7 -7 15 -10 18 -7 3 3 -2 9 -12 12 -14 6 -15 5 -6 -5z"/>
<path d="M1015 2080 c-4 -6 3 -10 14 -10 25 0 27 6 6 13 -8 4 -17 2 -20 -3z"/>
<path d="M1513 1996 c-4 -5 -1 -6 7 -1 9 5 11 4 6 -4 -6 -9 -11 -9 -24 1 -12
10 -14 10 -8 1 7 -13 2 -15 -56 -16 -17 -1 -28 -7 -28 -15 0 -12 -3 -12 -15
-2 -13 11 -14 10 -10 -2 4 -10 0 -15 -12 -15 -62 0 -87 -4 -74 -12 17 -11 -5
-19 -60 -23 -21 -1 -36 -7 -36 -15 0 -10 4 -10 16 0 14 11 14 10 2 -5 -7 -10
-18 -15 -24 -11 -5 3 -15 -1 -22 -10 -7 -9 -23 -18 -36 -21 -13 -2 -23 -9 -22
-15 2 -6 -7 -11 -19 -11 -21 0 -21 0 -2 -15 14 -11 15 -14 3 -9 -10 3 -20 0
-24 -5 -3 -6 -11 -9 -16 -6 -5 4 -9 -2 -9 -12 0 -10 -5 -25 -11 -33 -9 -12
-10 -12 -5 3 4 12 2 17 -6 15 -7 -3 -14 -10 -14 -16 -1 -7 -2 -16 -3 -22 0 -5
-9 -7 -18 -3 -16 6 -15 3 2 -18 15 -18 16 -20 3 -10 -16 12 -18 11 -19 -10 -1
-17 -3 -19 -6 -6 -6 25 -23 11 -23 -20 0 -18 -4 -24 -15 -19 -9 3 -15 0 -15
-10 0 -9 5 -13 13 -9 6 4 4 0 -6 -8 -10 -9 -18 -18 -18 -21 2 -18 0 -19 -9 -6
-8 12 -10 9 -10 -12 0 -15 -5 -30 -12 -34 -7 -5 -8 -2 -3 7 6 10 5 11 -4 3 -7
-6 -13 -21 -14 -33 -1 -11 -7 -21 -14 -21 -7 0 -13 -5 -13 -11 0 -5 6 -7 13
-3 9 6 9 5 0 -7 -7 -8 -14 -41 -16 -72 -2 -31 -10 -63 -17 -72 -15 -18 -20
-124 -7 -132 5 -3 3 -9 -4 -14 -11 -7 -11 -9 -1 -9 9 0 10 -6 4 -17 -10 -22
-8 -115 3 -132 6 -11 10 -10 17 3 6 11 6 22 -2 31 -8 10 -8 14 2 18 10 4 10 7
-1 15 -10 7 -10 11 -1 17 9 6 9 10 -1 16 -8 5 -9 9 -3 9 7 0 11 23 12 63 0 90
1 97 12 97 7 0 7 -6 1 -18 -7 -14 -6 -19 4 -19 11 0 13 10 10 34 -3 25 1 39
17 55 11 11 21 31 21 44 0 14 3 27 8 30 5 3 6 -1 3 -9 -3 -8 0 -18 7 -23 7 -4
10 -3 5 4 -3 6 4 18 16 28 15 10 17 14 6 11 -10 -4 -20 -2 -23 3 -4 6 1 10 9
10 14 0 33 36 27 54 -1 5 5 4 13 -3 13 -11 15 -10 11 8 -2 11 1 23 6 26 5 4 7
11 4 16 -3 5 1 6 9 3 11 -4 16 0 16 10 0 9 3 15 8 15 18 -3 32 2 32 12 0 5 -5
7 -12 3 -7 -5 -8 -3 -4 5 5 7 14 10 22 7 8 -3 14 1 14 10 0 8 7 17 16 21 8 3
13 12 10 20 -3 8 -2 12 3 9 4 -3 19 5 31 17 19 16 22 18 17 4 -10 -26 2 -20
36 18 25 29 33 33 46 22 12 -10 13 -9 6 2 -6 11 -1 13 23 9 17 -2 29 -1 26 4
-3 4 0 8 5 8 6 0 10 5 8 11 -2 14 35 22 43 9 3 -4 16 -2 30 6 22 13 22 14 3 9
-12 -3 -24 -2 -26 2 -6 9 -6 10 103 13 42 1 78 7 82 14 6 8 8 7 8 -1 0 -15 36
-17 45 -3 3 6 12 10 18 10 8 0 7 -3 -2 -9 -8 -5 21 -9 75 -10 57 -1 91 -6 96
-14 6 -9 8 -9 8 1 0 7 5 10 10 7 6 -4 7 -11 4 -17 -5 -7 2 -9 20 -6 14 3 29 1
32 -4 3 -5 15 -6 27 -2 22 6 22 6 2 -10 -19 -15 -19 -16 -1 -9 13 4 17 3 12
-5 -4 -8 -2 -10 7 -6 8 3 21 -3 28 -14 8 -11 25 -19 39 -18 16 1 24 -4 22 -13
-2 -8 3 -11 13 -8 8 4 15 2 15 -3 0 -5 7 -7 15 -4 9 4 18 -1 22 -12 3 -11 13
-23 20 -27 7 -5 11 -12 8 -17 -3 -5 -1 -11 5 -15 5 -3 10 -1 10 5 0 6 5 8 10
5 6 -4 8 -11 4 -16 -3 -6 3 -13 15 -16 11 -3 23 -14 26 -24 4 -10 9 -18 13
-18 20 3 25 -2 12 -11 -9 -6 -11 -10 -3 -10 7 0 10 -7 6 -17 -4 -11 -3 -14 5
-9 7 4 12 2 12 -4 0 -6 5 -8 10 -5 6 4 10 3 9 -2 -1 -4 -1 -19 1 -33 1 -23 2
-23 10 -5 8 19 9 19 9 -2 1 -13 7 -23 15 -23 8 0 17 -7 20 -16 6 -15 4 -15
-11 -3 -17 13 -17 13 0 -7 9 -11 17 -31 17 -43 0 -12 4 -20 8 -17 4 2 12 -11
18 -29 6 -20 7 -32 1 -28 -5 3 -4 -3 1 -14 6 -11 7 -25 2 -33 -5 -9 -5 -19 2
-27 6 -7 7 -13 3 -13 -5 0 -1 -8 8 -17 17 -20 29 -203 13 -203 -5 0 -6 -3 -3
-7 4 -3 1 -13 -6 -21 -10 -13 -9 -15 3 -8 8 4 6 1 -4 -8 -17 -13 -17 -18 -5
-33 9 -11 10 -14 2 -9 -9 5 -13 -2 -14 -26 -1 -18 -2 -37 -4 -43 -1 -5 -3 -16
-3 -23 -1 -8 -7 -10 -14 -6 -9 5 -8 2 1 -9 8 -10 11 -20 7 -24 -3 -3 -6 -1 -6
5 0 7 -5 12 -10 12 -7 0 -7 -6 0 -19 7 -14 7 -22 0 -26 -6 -4 -8 -11 -5 -16 4
-5 -3 -9 -15 -9 -13 0 -20 -5 -17 -12 2 -7 -5 -19 -17 -26 -16 -10 -16 -12 -3
-8 11 3 15 2 12 -4 -3 -6 -14 -10 -23 -11 -10 0 -12 -3 -5 -5 7 -3 9 -12 7
-19 -4 -11 1 -13 22 -9 33 6 45 14 21 14 -9 0 -17 5 -17 11 0 6 7 8 16 5 13
-5 15 -2 11 14 -3 11 -1 18 4 14 5 -3 9 0 9 6 0 6 4 9 9 6 5 -4 7 3 4 14 -3
12 0 20 7 20 7 0 10 7 6 15 -3 8 -1 15 4 15 6 0 10 -5 10 -12 0 -27 16 9 19
44 1 5 7 7 14 5 7 -1 12 8 11 26 -1 25 7 32 30 28 5 -1 3 6 -5 15 -8 10 -9 15
-2 11 7 -5 11 4 12 26 1 43 5 65 16 74 4 4 5 3 1 -4 -3 -6 -2 -14 3 -17 5 -4
8 2 6 11 -2 10 -4 22 -4 26 -1 5 -6 5 -13 1 -7 -4 -8 -3 -4 5 4 6 12 9 17 5 6
-3 8 9 6 30 -2 20 0 36 5 36 5 0 9 10 8 23 -3 37 -1 49 10 42 6 -3 10 3 10 14
0 12 -6 21 -12 21 -9 0 -8 4 2 10 13 9 13 10 0 10 -10 0 -11 3 -4 8 13 8 15
42 2 42 -4 0 -8 -5 -8 -12 0 -6 -3 -8 -7 -4 -5 4 -1 13 9 20 19 14 20 66 0 58
-7 -2 -12 -1 -11 4 5 29 -2 55 -13 48 -7 -4 -5 2 5 13 13 15 15 23 7 28 -6 4
-9 13 -6 21 3 7 -3 18 -12 23 -14 7 -18 22 -17 65 0 31 -4 56 -9 56 -4 0 -6
-9 -3 -21 4 -16 3 -18 -9 -8 -7 6 -12 15 -9 19 3 5 0 12 -6 16 -8 4 -7 9 2 15
11 7 9 10 -8 15 -12 3 -19 12 -17 19 3 8 -4 16 -17 20 -17 6 -19 9 -8 16 11 7
11 9 -3 9 -9 0 -20 5 -24 12 -4 6 -3 8 4 4 6 -3 13 -2 16 3 3 5 -4 11 -16 14
-12 4 -19 9 -15 14 4 4 -5 13 -20 20 -16 7 -20 11 -10 8 9 -2 17 0 17 4 0 12
-56 31 -66 23 -4 -4 -4 -2 0 5 8 14 -22 53 -41 53 -7 0 -12 4 -11 9 2 5 0 9
-5 10 -13 1 -35 26 -30 34 2 4 -7 7 -21 7 -15 0 -30 8 -36 21 -7 13 -17 18
-27 15 -14 -6 -14 -4 -2 11 12 15 12 16 -3 10 -10 -4 -18 -2 -18 5 0 7 -4 7
-13 0 -14 -12 -43 1 -34 15 3 5 0 10 -8 10 -8 0 -12 -4 -9 -8 2 -5 -7 -2 -22
6 -15 7 -33 11 -40 8 -8 -3 -14 1 -14 11 0 19 -11 21 -29 4 -7 -7 -12 -8 -11
-3 5 22 -1 29 -10 15 -7 -11 -10 -11 -10 -2 0 7 -4 10 -10 7 -5 -3 -10 -2 -10
4 0 6 -7 8 -16 4 -9 -3 -20 0 -25 8 -6 10 -9 10 -9 2 0 -7 -8 -13 -17 -13 -15
0 -16 2 -3 10 8 5 12 10 8 11 -27 5 -34 4 -45 -4 -9 -6 -13 -6 -13 2 0 6 -5
11 -11 11 -5 0 -7 -6 -3 -12 6 -10 4 -10 -8 0 -13 10 -17 10 -21 0 -4 -9 -8
-10 -14 -3 -10 13 -72 14 -80 1z m51 -4 c3 -5 -1 -9 -9 -9 -8 0 -12 4 -9 9 3
4 7 8 9 8 2 0 6 -4 9 -8z m-419 -170 c-3 -3 -11 0 -18 7 -9 10 -8 11 6 5 10
-3 15 -9 12 -12z m805 -102 c0 -5 -5 -10 -11 -10 -5 0 -7 5 -4 10 3 6 8 10 11
10 2 0 4 -4 4 -10z m488 -485 c-3 -3 -9 2 -12 12 -6 14 -5 15 5 6 7 -7 10 -15
7 -18z m-111 -60 c0 -8 -4 -12 -9 -9 -5 3 -6 10 -3 15 9 13 12 11 12 -6z m23
-395 c0 -5 -2 -10 -4 -10 -3 0 -8 5 -11 10 -3 6 -1 10 4 10 6 0 11 -4 11 -10z"/>
<path d="M845 1980 c-3 -6 1 -7 9 -4 18 7 21 14 7 14 -6 0 -13 -4 -16 -10z"/>
<path d="M2308 1828 c5 -5 16 -8 23 -6 8 3 3 7 -10 11 -17 4 -21 3 -13 -5z"/>
<path d="M926 1808 c5 -8 2 -9 -10 -5 -9 4 -15 3 -12 -1 2 -4 1 -14 -5 -22 -5
-8 -9 -10 -9 -4 0 6 -7 11 -15 11 -8 0 -15 -9 -15 -19 0 -10 -3 -17 -7 -17
-22 4 -25 -3 -7 -16 18 -14 18 -14 -3 -8 -15 3 -23 1 -23 -7 0 -7 7 -10 16 -6
8 3 12 2 9 -4 -10 -17 4 -11 25 10 11 11 17 20 14 20 -4 0 -1 7 6 15 7 8 16
12 21 9 5 -3 6 2 3 10 -6 14 5 21 29 17 14 -2 7 17 -9 23 -10 4 -13 2 -8 -6z
m-48 -58 c-7 -10 -14 -18 -15 -16 -6 6 9 36 18 36 5 0 4 -9 -3 -20z"/>
<path d="M625 1740 c-3 -5 -1 -10 4 -10 6 0 11 5 11 10 0 6 -2 10 -4 10 -3 0
-8 -4 -11 -10z"/>
<path d="M1205 1711 c-3 -5 -2 -12 3 -15 5 -3 9 1 9 9 0 17 -3 19 -12 6z"/>
<path d="M808 1692 c-9 -2 -15 -9 -12 -15 3 -8 -5 -13 -17 -14 -12 -1 -29 -10
-38 -19 -9 -9 -10 -14 -3 -10 15 9 16 -10 1 -20 -6 -3 -9 -15 -6 -25 3 -10 0
-20 -7 -22 -7 -3 -4 -10 8 -19 15 -12 16 -17 6 -23 -7 -5 -11 -4 -8 1 3 5 -4
17 -15 27 -19 19 -19 18 -12 -4 6 -17 4 -21 -8 -16 -19 7 -29 -16 -14 -33 9
-10 9 -11 0 -6 -9 5 -13 0 -13 -13 0 -13 -5 -18 -13 -15 -8 3 -14 -2 -14 -10
0 -8 5 -12 11 -9 6 4 5 0 -1 -9 -7 -8 -10 -18 -6 -21 3 -4 -4 -7 -17 -7 -20 0
-21 -2 -9 -17 12 -14 12 -16 0 -8 -11 6 -13 1 -9 -22 4 -32 -9 -52 -32 -45 -9
3 -7 -2 5 -13 11 -9 15 -14 10 -11 -12 5 -14 -38 -2 -50 4 -4 7 -12 7 -18 0
-6 -5 -4 -10 4 -10 16 -11 14 -13 -42 -1 -13 -5 -26 -11 -30 -12 -8 -17 -40
-5 -32 5 3 9 -2 9 -11 0 -9 -4 -13 -10 -10 -5 3 -10 1 -10 -4 0 -6 4 -11 9
-11 5 0 9 -14 9 -31 -1 -20 -4 -26 -9 -17 -7 10 -9 9 -9 -4 0 -10 5 -18 10
-18 6 0 10 -5 10 -11 0 -5 -4 -8 -9 -5 -4 3 -7 -5 -7 -17 1 -12 -3 -29 -8 -37
-10 -13 -9 -13 7 -1 19 15 23 1 5 -18 -11 -10 -10 -11 2 -6 12 4 16 -5 17 -47
2 -80 2 -80 16 -72 10 6 10 4 0 -7 -18 -19 -16 -34 2 -19 13 11 14 10 9 -4 -3
-9 -11 -16 -18 -17 -6 0 -2 -4 9 -9 13 -6 15 -9 5 -9 -12 -1 -12 -3 -2 -10 7
-4 14 -22 14 -39 1 -22 6 -32 17 -33 10 0 12 -2 4 -6 -7 -2 -13 -9 -13 -14 0
-5 6 -8 13 -6 6 1 11 -6 11 -15 -1 -10 4 -18 12 -18 8 0 14 -9 14 -21 0 -13 4
-18 13 -13 7 5 7 2 -2 -10 -8 -9 -10 -16 -5 -15 26 5 34 -3 30 -26 -4 -20 1
-28 20 -37 18 -8 21 -14 12 -20 -10 -6 -10 -8 0 -8 9 0 11 -7 7 -22 -7 -23 -7
-23 10 -3 9 11 14 15 11 9 -3 -7 6 -19 20 -29 15 -9 23 -22 20 -30 -3 -8 0
-17 6 -21 6 -4 8 -3 4 4 -3 6 -2 14 4 17 6 4 10 3 9 -2 -5 -30 2 -52 16 -47
14 6 20 -7 16 -30 -1 -5 5 -3 14 4 13 11 15 11 13 1 -2 -8 5 -15 15 -16 11 -2
22 -7 25 -11 4 -4 -1 -4 -10 -1 -10 3 -20 2 -23 -3 -4 -6 1 -10 9 -10 8 0 22
-8 32 -17 10 -10 21 -19 26 -19 4 -1 13 -2 18 -3 6 0 10 -9 10 -18 0 -15 2
-16 10 -3 6 10 10 11 10 3 0 -7 9 -13 21 -13 11 0 17 -4 14 -10 -3 -5 -1 -10
5 -10 7 0 9 -7 6 -16 -5 -14 -4 -15 9 -4 9 7 18 10 22 6 3 -3 1 -6 -5 -6 -7 0
-12 -5 -12 -10 0 -6 6 -10 13 -9 27 3 39 -2 34 -15 -4 -11 1 -15 16 -14 55 2
77 -3 77 -17 0 -11 12 -15 44 -15 25 0 48 -5 52 -12 5 -7 3 -8 -6 -3 -9 5 -11
4 -6 -4 6 -9 11 -9 22 0 12 10 14 10 12 0 -2 -9 11 -14 42 -16 86 -4 87 -4 70
-15 -12 -8 -11 -10 7 -10 17 0 21 4 17 18 -5 14 -4 15 5 2 11 -16 55 -24 45
-9 -3 5 0 9 5 9 6 0 11 -3 11 -8 0 -4 26 -8 58 -10 40 -1 53 1 42 8 -8 5 -10
10 -4 10 6 0 14 -3 18 -7 10 -10 86 -12 86 -2 0 4 -10 6 -21 4 -12 -3 -19 -1
-15 2 11 12 46 13 46 2 0 -6 7 -3 16 6 11 10 20 13 26 7 6 -6 22 -7 38 -2 16
5 32 5 36 2 4 -4 4 -1 0 6 -5 7 -15 11 -23 8 -8 -3 -11 -1 -8 5 4 5 15 7 25 4
10 -3 25 1 34 10 9 9 16 12 16 6 0 -16 21 -14 39 3 9 8 35 16 58 17 38 3 41 5
31 22 -7 14 -7 17 1 13 17 -11 51 3 51 20 0 8 5 12 10 9 6 -3 10 -1 10 4 0 6
5 11 11 11 5 0 7 -5 3 -12 -4 -7 -3 -8 4 -4 7 4 12 14 12 23 0 10 6 13 16 9
11 -4 18 1 21 14 3 11 11 20 18 20 7 0 16 7 19 16 3 8 10 13 16 9 12 -7 50 16
50 32 0 6 3 13 8 16 4 2 1 2 -6 0 -8 -1 -12 3 -9 9 2 7 15 12 30 10 18 -2 27
2 32 17 3 12 4 25 0 31 -3 6 0 7 9 4 9 -3 13 -11 9 -18 -3 -6 -2 -7 3 -3 5 5
10 13 10 18 1 5 2 14 3 20 0 5 6 7 11 4 6 -3 10 1 10 9 0 26 1 30 12 43 6 7
14 10 19 7 5 -3 9 4 9 15 0 12 -5 21 -12 21 -6 0 -9 3 -6 6 4 3 17 0 30 -7 21
-11 22 -11 9 4 -12 15 -9 21 10 19 3 0 5 11 5 26 -1 15 5 28 12 28 25 3 27 4
15 12 -10 6 -10 12 3 28 8 10 13 13 9 7 -4 -8 -1 -11 7 -8 8 3 14 23 14 48 2
50 10 88 22 96 4 3 8 14 9 24 0 9 1 26 2 38 0 12 6 19 14 16 12 -5 17 59 15
223 0 41 0 87 0 102 0 15 -4 25 -9 22 -5 -3 -7 1 -4 8 12 33 12 75 -2 75 -9 0
-13 -17 -14 -56 -2 -92 -5 -126 -12 -138 -4 -6 -1 -14 5 -16 7 -3 4 -6 -7 -7
-18 -1 -19 -1 -2 -11 13 -8 15 -14 7 -29 -5 -10 -7 -26 -4 -34 4 -11 0 -16
-12 -17 -11 0 -14 -3 -7 -6 9 -3 10 -10 3 -22 -5 -10 -6 -21 -3 -25 3 -3 -2
-6 -13 -6 -18 -1 -18 -1 1 -16 20 -16 20 -16 -1 -10 -18 5 -20 2 -20 -31 1
-20 -4 -38 -12 -40 -6 -3 -12 0 -12 7 0 6 5 8 12 4 7 -4 8 -3 4 5 -12 18 -27
2 -22 -25 3 -13 0 -24 -6 -24 -6 0 -5 -6 2 -16 8 -8 9 -14 4 -13 -19 3 -34 -1
-34 -11 0 -5 8 -7 18 -4 13 4 12 2 -3 -7 -11 -8 -24 -14 -29 -14 -5 0 -11 -6
-14 -14 -3 -9 0 -11 9 -7 8 4 6 1 -3 -6 -15 -11 -15 -13 0 -24 16 -12 16 -12
-1 -11 -11 1 -26 -9 -34 -23 -14 -23 -14 -24 1 -6 19 23 21 14 4 -13 -11 -18
-13 -18 -26 -3 -13 16 -13 16 -8 -1 4 -12 0 -17 -15 -17 -16 0 -20 -5 -16 -20
3 -13 1 -18 -6 -13 -7 4 -8 0 -3 -12 6 -16 4 -16 -11 -4 -10 7 -15 10 -11 5 4
-5 -3 -17 -15 -27 l-22 -18 25 5 c24 4 24 4 3 -5 -12 -6 -32 -8 -43 -6 -19 4
-20 2 -8 -12 9 -12 9 -15 1 -9 -7 4 -13 3 -13 -3 0 -6 -6 -8 -13 -5 -8 3 -20
-3 -28 -12 -9 -12 -10 -15 -1 -10 6 4 12 3 12 -3 0 -5 -12 -11 -27 -13 -17 -2
-32 -12 -40 -28 -7 -14 -13 -19 -13 -12 0 6 -5 12 -10 12 -6 0 -9 -3 -9 -7 4
-23 -4 -30 -27 -27 -19 2 -24 -1 -20 -12 3 -8 2 -12 -3 -9 -5 3 -12 1 -15 -3
-3 -5 -17 -8 -31 -7 -14 2 -25 -2 -25 -8 0 -7 -4 -6 -9 2 -8 12 -13 12 -35 -2
-14 -10 -28 -17 -31 -17 -3 0 -13 -6 -21 -15 -9 -8 -23 -15 -32 -14 -12 0 -11
3 6 9 12 5 22 11 22 14 0 9 -28 0 -45 -14 -13 -11 -52 -14 -160 -15 -93 0
-141 -4 -137 -10 3 -6 0 -5 -9 1 -12 9 -25 12 -76 16 -7 1 -13 8 -13 15 0 8
-5 11 -10 8 -6 -4 -7 -11 -4 -17 4 -7 2 -8 -5 -4 -6 4 -9 12 -5 17 3 5 -7 9
-23 8 -33 -1 -60 4 -69 14 -4 3 3 5 14 2 12 -2 24 0 26 4 3 4 -16 8 -42 9 -83
3 -92 4 -98 13 -3 5 1 6 9 3 8 -3 18 0 22 6 3 6 3 10 -2 9 -27 -5 -53 3 -53
16 0 9 -6 12 -15 9 -8 -4 -15 -1 -15 5 0 6 -6 8 -14 5 -8 -3 -17 0 -22 7 -4 7
-3 10 4 5 6 -3 13 -3 16 2 2 4 -7 9 -22 10 -14 1 -31 7 -37 14 -7 8 -6 9 4 3
10 -6 12 -4 7 4 -5 7 -15 10 -23 7 -8 -3 -11 -1 -8 4 3 6 3 10 -2 11 -24 2
-46 8 -51 15 -4 4 1 4 10 1 12 -4 15 -2 12 8 -3 7 -15 12 -26 10 -17 -4 -18
-2 -6 12 11 15 10 16 -9 11 -12 -3 -22 -3 -21 1 2 21 -3 31 -14 25 -9 -5 -8
-2 1 9 8 10 11 20 7 24 -3 3 -6 1 -6 -6 0 -9 -4 -9 -14 1 -8 7 -12 16 -10 20
2 4 -1 10 -7 14 -7 4 -9 3 -6 -3 7 -11 -22 -28 -31 -18 -3 3 0 5 6 5 18 0 9
43 -11 48 -11 3 -16 10 -12 19 3 10 1 13 -9 10 -8 -3 -17 1 -20 9 -3 8 0 14 7
14 8 0 8 3 -2 9 -7 5 -11 13 -7 19 3 5 -2 16 -11 23 -14 12 -16 12 -8 0 6 -10
4 -12 -4 -7 -7 5 -10 11 -7 14 3 3 -1 13 -10 23 -12 13 -12 19 -3 25 8 4 10 3
5 -4 -4 -7 -2 -12 3 -12 16 0 13 16 -6 31 -11 10 -14 10 -9 2 4 -7 3 -13 -2
-13 -16 0 -42 70 -42 115 0 24 -4 45 -9 47 -5 2 -12 30 -15 63 -4 32 -9 61
-11 64 -3 2 0 10 6 18 8 9 8 13 1 13 -6 0 -10 9 -9 20 1 11 5 20 10 20 5 0 4
7 -3 15 -10 12 -10 15 1 15 11 0 11 2 1 9 -14 9 -13 32 3 43 6 5 5 8 -3 8 -8
0 -10 5 -6 12 4 6 7 35 7 65 0 29 3 53 7 53 4 0 5 12 2 26 -3 19 -1 25 7 20 6
-4 11 -2 11 3 0 6 -5 11 -11 11 -5 0 -7 5 -4 10 4 6 10 8 14 6 4 -3 6 11 5 29
-2 23 2 39 14 47 18 14 29 44 12 33 -5 -3 -10 -4 -10 0 0 3 12 10 28 16 15 7
22 13 15 16 -7 3 -13 9 -13 14 0 6 5 7 10 4 6 -3 10 1 10 10 0 10 -5 13 -12 9
-9 -5 -9 -2 1 9 15 18 26 23 16 7 -3 -5 -2 -10 3 -10 6 0 13 7 16 16 3 8 2 12
-4 9 -6 -3 -10 -2 -10 4 0 5 5 11 12 13 17 6 5 24 -14 20z m-228 -712 c0 -5
-5 -10 -11 -10 -5 0 -7 5 -4 10 3 6 8 10 11 10 2 0 4 -4 4 -10z m137 -72 c-3
-7 -5 -2 -5 12 0 14 2 19 5 13 2 -7 2 -19 0 -25z m96 -203 c-3 -9 -8 -14 -10
-11 -3 3 -2 9 2 15 9 16 15 13 8 -4z m67 -91 c0 -8 -19 -13 -24 -6 -3 5 1 9 9
9 8 0 15 -2 15 -3z m-150 -114 c0 -5 -5 -10 -11 -10 -5 0 -7 5 -4 10 3 6 8 10
11 10 2 0 4 -4 4 -10z m1680 -24 c0 -2 -7 -7 -16 -10 -8 -3 -12 -2 -9 4 6 10
25 14 25 6z m-95 -136 c-3 -5 -11 -10 -16 -10 -6 0 -7 5 -4 10 3 6 11 10 16
10 6 0 7 -4 4 -10z m-385 -40 c0 -5 -8 -10 -17 -10 -15 0 -16 2 -3 10 19 12
20 12 20 0z m325 -20 c-3 -5 -12 -10 -18 -10 -7 0 -6 4 3 10 19 12 23 12 15 0z
m-641 -42 c-6 -9 -44 -6 -44 3 0 4 11 6 24 5 13 0 22 -4 20 -8z m60 1 c3 -3
-6 -5 -19 -5 -14 0 -25 4 -25 8 0 8 36 6 44 -3z m266 -143 c0 -11 -19 -15 -25
-6 -3 5 1 10 9 10 9 0 16 -2 16 -4z"/>
<path d="M2470 1676 c0 -2 7 -7 16 -10 8 -3 12 -2 9 4 -6 10 -25 14 -25 6z"/>
<path d="M550 1631 c0 -6 6 -11 13 -11 8 0 7 -4 -3 -10 -9 -6 -10 -10 -3 -10
19 0 24 17 8 30 -10 9 -15 9 -15 1z"/>
<path d="M2510 1599 c0 -5 5 -7 10 -4 6 3 10 8 10 11 0 2 -4 4 -10 4 -5 0 -10
-5 -10 -11z"/>
<path d="M870 1329 c0 -5 5 -7 10 -4 6 3 10 8 10 11 0 2 -4 4 -10 4 -5 0 -10
-5 -10 -11z"/>
<path d="M2516 1282 c-3 -5 1 -9 9 -9 8 0 12 4 9 9 -3 4 -7 8 -9 8 -2 0 -6 -4
-9 -8z"/>
<path d="M2550 1280 c0 -5 5 -10 11 -10 5 0 7 5 4 10 -3 6 -8 10 -11 10 -2 0
-4 -4 -4 -10z"/>
<path d="M2787 1273 c-10 -9 -9 -23 1 -23 5 0 9 7 9 15 0 17 -1 18 -10 8z"/>
<path d="M2525 1009 c-4 -6 -5 -12 -2 -15 2 -3 7 2 10 11 7 17 1 20 -8 4z"/>
<path d="M750 841 c0 -6 4 -13 10 -16 6 -3 7 1 4 9 -7 18 -14 21 -14 7z"/>
<path d="M2539 738 c-5 -19 -8 -50 -4 -46 7 7 15 48 9 48 -2 0 -4 -1 -5 -2z"/>
<path d="M2170 590 c0 -11 7 -20 15 -20 13 0 14 4 5 20 -6 11 -13 20 -15 20
-3 0 -5 -9 -5 -20z"/>
<path d="M2145 550 c-3 -5 -2 -10 4 -10 5 0 13 5 16 10 3 6 2 10 -4 10 -5 0
-13 -4 -16 -10z"/>
<path d="M2113 527 c0 -8 6 -14 14 -14 9 0 10 4 2 14 -6 7 -12 13 -14 13 -1 0
-2 -6 -2 -13z"/>
<path d="M1030 470 c0 -5 5 -10 11 -10 5 0 7 5 4 10 -3 6 -8 10 -11 10 -2 0
-4 -4 -4 -10z"/>
<path d="M776 392 c-3 -5 1 -9 9 -9 8 0 12 4 9 9 -3 4 -7 8 -9 8 -2 0 -6 -4
-9 -8z"/>
<path d="M2210 240 c0 -5 5 -10 11 -10 5 0 7 5 4 10 -3 6 -8 10 -11 10 -2 0
-4 -4 -4 -10z"/>
<path d="M954 209 c-4 -7 -3 -9 4 -5 5 3 13 0 15 -6 4 -9 6 -10 6 -1 1 17 -16
25 -25 12z"/>
</g>
</svg>
